<?xml version="1.0" encoding="UTF-8" standalone="no"?>
<svg
   xmlns:dc="http://purl.org/dc/elements/1.1/"
   xmlns:cc="http://creativecommons.org/ns#"
   xmlns:rdf="http://www.w3.org/1999/02/22-rdf-syntax-ns#"
   xmlns:svg="http://www.w3.org/2000/svg"
   xmlns="http://www.w3.org/2000/svg"
   xmlns:sodipodi="http://sodipodi.sourceforge.net/DTD/sodipodi-0.dtd"
   xmlns:inkscape="http://www.inkscape.org/namespaces/inkscape"
   version="1.1"
   id="Layer_1"
   x="0px"
   y="0px"
   viewBox="0 0 508 508"
   style="enable-background:new 0 0 508 508;"
   xml:space="preserve"
   width="512px"
   height="512px"
   class=""
   sodipodi:docname="Existing-user-avatar-icon (e).svg"
   inkscape:version="0.92.2 (5c3e80d, 2017-08-06)"><metadata
     id="metadata9255"><rdf:RDF><cc:Work
         rdf:about=""><dc:format>image/svg+xml</dc:format><dc:type
           rdf:resource="http://purl.org/dc/dcmitype/StillImage" /><dc:title /></cc:Work></rdf:RDF></metadata><defs
     id="defs9253" /><sodipodi:namedview
     pagecolor="#ffffff"
     bordercolor="#666666"
     borderopacity="1"
     objecttolerance="10"
     gridtolerance="10"
     guidetolerance="10"
     inkscape:pageopacity="0"
     inkscape:pageshadow="2"
     inkscape:window-width="1600"
     inkscape:window-height="837"
     id="namedview9251"
     showgrid="false"
     inkscape:zoom="0.61"
     inkscape:cx="-10.393443"
     inkscape:cy="256"
     inkscape:window-x="-8"
     inkscape:window-y="-8"
     inkscape:window-maximized="1"
     inkscape:current-layer="Layer_1" /><g
     id="g9248"><circle
       style="fill:#FFFFFF"
       cx="254"
       cy="254"
       r="254"
       data-original="#84DBFF"
       class=""
       data-old_color="#ffffff"
       id="circle9226" /><path
       style="fill:#C9C8C7"
       d="M79.2,438.4C124.8,481.6,186,508,254,508s129.2-26.4,174.8-69.6H79.2z"
       data-original="#54C0EB"
       class=""
       data-old_color="#c9c8c7"
       id="path9228" /><ellipse
       style="fill:#F9B54C;"
       cx="254"
       cy="240.8"
       rx="26.4"
       ry="45.2"
       data-original="#F9B54C"
       class=""
       id="ellipse9230" /><path
       style="fill:#bc5c6b;fill-opacity:1"
       d="M347.2,392c4.4-18,7.2-36,7.2-52.8c0-71.2-44.8-93.2-100.4-93.2c-55.2,0-100.4,21.6-100.4,93.2  c0,16.8,2.4,34.8,7.2,52.8H347.2z"
       data-original="#FF7058"
       class=""
       data-old_color="#FF7058"
       id="path9232" /><g
       id="g9238"><path
         style="fill:#FFFFFF"
         d="M280,238.4c0,0-15.2,9.2-26,9.2l14,30.4l20-28.4L280,238.4z"
         data-original="#FFFFFF"
         class=""
         id="path9234" /><path
         style="fill:#FFFFFF"
         d="M228,238.4c0,0,15.2,9.2,26,9.2L240,278l-20-28.4L228,238.4z"
         data-original="#FFFFFF"
         class=""
         id="path9236" /></g><path
       style="fill:#71635a;fill-opacity:1"
       d="M327.2,111.2c0,42.4-32.8,101.6-73.2,101.6s-73.2-59.2-73.2-101.6s32.8-60.8,73.2-60.8  S327.2,68.8,327.2,111.2z"
       data-original="#324A5E"
       class=""
       data-old_color="#333d47"
       id="path9240" /><path
       style="fill:#FFD05B;"
       d="M308.4,153.6c0,43.2-24.4,78-54.4,78s-54.4-34.8-54.4-78c0-25.6,8.8-48.4,22-62.8  c9.6,9.6,21.2,18.8,34.4,26.8c17.6,10.8,35.2,18.4,51.2,22.8C308,144.8,308.4,149.2,308.4,153.6z"
       data-original="#FFD05B"
       class=""
       id="path9242" /><path
       style="fill:#333D47"
       d="M351.6,437.6H156.4c-6.8,0-12.8-3.2-13.6-7.6l-24.4-120c-1.2-6.4,4.4-11.6,12.8-11.6h245.6  c8.4,0,14,5.2,12.8,11.6l-24.4,120C364.4,434,358.4,437.6,351.6,437.6z"
       data-original="#324A5E"
       class=""
       data-old_color="#333d47"
       id="path9244" /><ellipse
       style="fill:#FFFFFF"
       cx="254"
       cy="362.4"
       rx="30"
       ry="12.8"
       data-original="#2B3B4E"
       class="active-path"
       data-old_color="#ffffff"
       id="ellipse9246" /></g></svg>